<?xml version="1.0" encoding="UTF-8"?><svg id="Layer_2" xmlns="http://www.w3.org/2000/svg" viewBox="0 0 46.07 61.74"><defs><style>.cls-1{fill:#003741;stroke:#003741;stroke-miterlimit:10;stroke-width:2px;}</style></defs><g id="Layer_1-2"><g><g id="aw9cRF"><path class="cls-1" d="M32.74,59.48l-7.35-6.68c-3.97-3.63-7.94-7.26-11.93-10.88-.05-.05-.2-.1-.26-.1-2.73-.02-5.94-.02-8.86-.02H1.08l-.08-1.06V19.86h3.59c2.82,0,5.88,0,8.49,.01,.31,.02,.33-.04,.51-.2,4.45-4.08,8.9-8.15,13.36-12.23l5.8-5.21V59.48ZM6.88,39.68c2.17,0,4.38,0,6.34,.02,.59,0,1.24,.26,1.68,.65,3.98,3.62,7.96,7.25,11.93,10.89l3.8,3.47V6.95l-2.25,2.06c-4.46,4.07-8.91,8.14-13.35,12.22-.56,.52-1.18,.76-1.94,.76h-.01c-2.6-.01-5.66-.01-8.48-.01h-1.47v17.71h1.23c.83,0,1.68,0,2.54,0Z"/></g><path class="cls-1" d="M39.55,42.68c-.27,0-.54-.1-.75-.31-.41-.41-.41-1.08,0-1.5,2.68-2.68,4.16-6.24,4.16-10.03s-1.48-7.35-4.16-10.03c-.41-.41-.41-1.08,0-1.5s1.08-.41,1.5,0c3.08,3.08,4.78,7.18,4.78,11.53s-1.7,8.44-4.78,11.53c-.21,.21-.48,.31-.75,.31Z"/></g></g></svg>