<?xml version="1.0" encoding="UTF-8"?><svg id="Layer_2" xmlns="http://www.w3.org/2000/svg" viewBox="0 0 68.28 61.66"><defs><style>.cls-1{fill:#003741;stroke:#003741;stroke-miterlimit:10;stroke-width:2px;}</style></defs><g id="Layer_1-2"><g><g id="aw9cRF"><path class="cls-1" d="M34.21,59.44l-7.9-6.66c-4-3.4-8-6.79-12.01-10.18-.05-.04-.2-.09-.27-.09h0l-1.7,.05c-2.86,.08-6.3,.18-9.07,.28v.02l-2.15,.08-.11-1.14,.04-1c-.08-2.99-.02-5.98,.03-8.88,.06-2.96,.11-6.01,.03-9.03l-.1-.89,.02-1,1.07-.04c3.41-.13,7.6-.26,11.01-.37,.23,0,.33-.05,.5-.22C18.93,15.09,26.4,7.72,31.74,2.46l.45-.45,.65,.18c.33,.1,.53,.31,.65,.56l.54-.51,.09,2.33c.32,8.8,.16,17.69,0,26.3-.16,8.58-.32,17.45,0,26.19l.09,2.38ZM14.03,40.39c.57,0,1.21,.23,1.64,.59,4.01,3.39,8.02,6.78,12.02,10.18l4.25,3.6c-.22-8.02-.07-16.1,.07-23.93,.16-8.41,.32-17.09,.02-25.66h0c-5.22,5.13-11.99,11.82-16.93,16.7-.55,.54-1.16,.81-1.92,.83-3.05,.09-6.73,.21-9.91,.33l-.04,.03c.08,2.99,.02,6-.03,8.91-.05,2.87-.11,5.83-.04,8.76,2.78-.1,6.24-.2,9.12-.28l1.7-.05h.06Z"/></g><path class="cls-1" d="M40.35,42.4c-.26,0-.52-.09-.72-.28-.43-.4-.45-1.07-.05-1.5,2.58-2.78,3.93-6.39,3.79-10.18-.14-3.78-1.75-7.29-4.52-9.87-.43-.4-.45-1.07-.06-1.5,.4-.43,1.07-.45,1.49-.05,3.19,2.97,5.04,6.99,5.2,11.34,.16,4.35-1.39,8.5-4.35,11.7-.21,.22-.49,.34-.78,.34Z"/><path class="cls-1" d="M48.73,47.63c-.26,0-.52-.09-.72-.28-.43-.4-.45-1.07-.06-1.5,8.26-8.89,7.75-22.85-1.15-31.11-.43-.4-.45-1.07-.06-1.5,.4-.43,1.07-.45,1.49-.05,9.75,9.06,10.32,24.36,1.26,34.11-.21,.22-.49,.34-.78,.34Z"/><path class="cls-1" d="M58.59,51.09c-.26,0-.52-.09-.72-.28-.43-.4-.45-1.07-.06-1.5,4.99-5.37,7.59-12.36,7.32-19.67-.27-7.32-3.37-14.09-8.75-19.08-.43-.4-.45-1.07-.06-1.5s1.07-.45,1.49-.05c5.79,5.37,9.13,12.67,9.42,20.55,.29,7.88-2.51,15.41-7.89,21.19-.21,.22-.49,.34-.78,.34Z"/></g></g></svg>