<?xml version="1.0" encoding="UTF-8"?><svg id="Layer_2" xmlns="http://www.w3.org/2000/svg" viewBox="0 0 629.38 97.72"><defs><style>.cls-1{fill:#c87e59;}</style></defs><g id="Layer_1-2"><g><path class="cls-1" d="M329.11,97.46l-9.15-8.51c-1.14-1.02-1.52-1.91-1.52-3.56V12.33c0-1.65,.38-2.41,1.52-3.43L329.11,.38v-.38h-46.38V.38l9.15,8.51c1.02,1.02,1.52,1.78,1.52,3.43V85.39c0,1.65-.51,2.54-1.52,3.56l-9.15,8.51v.25h46.38v-.25Z"/><path class="cls-1" d="M372.31,55.4v29.99c0,1.65-.38,2.54-1.4,3.56l-9.15,8.51v.25h46.38v-.25l-9.15-8.51c-1.14-1.02-1.4-1.91-1.4-3.56V45.24L366.09,0h-30.37V.38l35.71,51.34c.76,1.27,.89,2.03,.89,3.68Z"/><path class="cls-1" d="M222.63,97.46l-9.15-8.51c-1.02-1.02-1.52-1.91-1.52-3.56V52.23h7.12c1.91,0,2.92,.64,3.43,2.03,.38,1.27,17.03,43.46,17.03,43.46h32.66v-.25l-6.86-6.86c-1.78-1.65-2.29-2.8-3.18-5.08-1.4-3.18-12.33-29.48-12.33-29.48l-18.04-5.21v-.38c11.31,0,30.37-5.72,30.37-24.4,0-21.86-17.03-26.05-35.83-26.05h-50.07V.38l9.15,8.51c1.14,1.02,1.52,1.78,1.52,3.43V85.39c0,1.65-.38,2.54-1.52,3.56l-9.15,8.51v.25h46.38v-.25ZM211.95,5.34c0-1.27,.51-2.54,2.41-2.54h5.08c9.53,0,16.01,6.23,16.01,23.25s-6.48,23.38-16.01,23.38h-7.5V5.34Z"/><path class="cls-1" d="M419.46,97.72h33.04v-.25l-13.09-19.06c-.76-1.27-.76-2.41-.38-3.94l3.56-10.8h33.17l7.5,20.97c.38,1.4,.38,2.54-.51,3.81l-6.99,9.02v.25h44.09v-.25l-8.51-9.66c-.64-1.02-1.14-1.65-1.52-2.8L479.94,0h-32.91V.38l8.64,9.91c.89,1.02,1.02,2.03,.51,3.81l-20.08,59.85c-1.02,2.41-1.65,3.68-3.18,5.85l-13.47,17.66v.25ZM458.98,15.38l15.76,45.49h-31.26l15.5-45.49Z"/><polygon class="cls-1" points="427.59 .38 427.59 0 391.76 0 391.76 .38 409.8 26.05 427.59 .38"/><path class="cls-1" d="M620.23,8.89l9.15-8.51v-.38h-46.25V.38l9.15,8.51c1.14,1.02,1.4,1.78,1.4,3.43V46.38h-32.28V12.33c0-1.65,.38-2.41,1.52-3.43l9.15-8.51v-.38h-46.38V.38l9.28,8.51c.89,1.02,1.27,1.78,1.27,3.43V85.39c0,1.65-.38,2.54-1.27,3.56l-9.28,8.51v.25h46.38v-.25l-9.15-8.51c-1.14-1.02-1.52-1.91-1.52-3.56V49.18h32.28v36.21c0,1.65-.25,2.54-1.4,3.56l-9.15,8.51v.25h46.25v-.25l-9.15-8.51c-.89-1.02-1.27-1.91-1.27-3.56V12.33c0-1.65,.38-2.41,1.27-3.43Z"/><path class="cls-1" d="M157.82,97.46l-9.15-8.51c-1.02-1.02-1.4-1.91-1.4-3.56V12.33c0-1.65,.38-2.41,1.4-3.43L157.82,.38v-.38h-46.25V.38l9.15,8.51c1.02,1.02,1.27,1.78,1.27,3.43V85.39c0,1.65-.25,2.54-1.27,3.56l-9.15,8.51v.25h46.25v-.25Z"/><path class="cls-1" d="M94.41,48.92C94.41,12.58,74.84,0,44.35,0H0V.38L9.15,8.89c.89,1.02,1.27,1.78,1.27,3.43V85.39c0,1.65-.38,2.54-1.27,3.56L0,97.46v.25H44.35c30.5,0,50.07-12.45,50.07-48.79Zm-51.34,46.13h-5.21c-1.91,0-2.16-1.27-2.16-2.54V5.34c0-1.27,.25-2.54,2.16-2.54h5.21c15.76,0,22.87,14.36,22.87,46.13s-7.12,46.13-22.87,46.13Z"/></g></g></svg>