<?xml version="1.0" encoding="UTF-8"?><svg id="Layer_2" xmlns="http://www.w3.org/2000/svg" viewBox="0 0 444.46 139.16"><defs><style>.cls-1{fill:#c87e59;}</style></defs><g id="Layer_1-2"><g><path class="cls-1" d="M29.05,9.43c0-5.1,4.33-9.43,9.64-9.43s9.54,4.33,9.54,9.43-4.23,9.64-9.54,9.64-9.64-4.33-9.64-9.64Z"/><path class="cls-1" d="M177.89,65.35c0-5.74,12.03-8.13,22.22-8.13h8.45l13.01,7.59c-.98-13.98-6.94-25.69-21.03-25.69s-24.71,12.36-24.71,27.31c0,5.63,1.72,13.04,3.17,17.24H54.74c-4.23,0-11.06-8.56-11.06-19.4V26.66h-2.71v13.99C16.74,40.92,0,50.19,0,72.72c0,15.28,2.28,31.97,19.4,31.97,13.71,0,20.34-12.29,21.57-35.92,.05,26.68,4.92,35.17,13.11,35.17h48.41l17.12-18.65v18.65h90.91l16.47-20.27h-28.72c-4.66,0-20.38-10.52-20.38-18.32Zm-136.92,.93c-1.22,13.93-13.29,18.04-20.59,18.04-9.32,0-18.43-4.55-18.43-12.14,0-9.75,21.68-11.6,34.58-11.6h4.44v5.7Z"/><path class="cls-1" d="M132.19,126.48c0,5.09-4.12,9.54-9.43,9.54s-9.65-4.45-9.65-9.54,4.33-9.54,9.65-9.54,9.43,4.34,9.43,9.54Z"/><path class="cls-1" d="M7.37,9.43C7.37,4.33,11.6,0,17.02,0c5.09,0,9.43,4.33,9.43,9.43s-4.34,9.64-9.43,9.64c-5.42,0-9.65-4.33-9.65-9.64Z"/><polygon class="cls-1" points="313.59 58.85 313.37 58.74 339.92 43.57 337.65 71.2 313.59 58.85"/><polygon class="cls-1" points="444.46 3.14 439.47 91.58 431.02 104.26 429.82 104.26 423.21 15.6 444.46 3.14"/><polygon class="cls-1" points="95.99 58.85 95.88 58.74 122.43 43.57 120.15 71.2 95.99 58.85"/><path class="cls-1" d="M381.16,15.6l21.24-12.46-5.38,96.25-.14,4.55h-58.04v-18.76l-14.31,18.76h-8.45c-17.67,0-26.99-7.05-26.99-28.62l16.91,8.35h82.79l-7.63-68.07Z"/><path class="cls-1" d="M245.09,71.31l25.36-15.06v29.48c0,17.99-7.37,41.94-25.9,53.43l-16.15-17.34c15.93-5.2,36.63-24.39,41.4-37.72l-24.71-12.79Z"/><circle class="cls-1" cx="100.97" cy="126.48" r="9.54"/></g></g></svg>