<?xml version="1.0" encoding="UTF-8"?><svg id="Layer_2" xmlns="http://www.w3.org/2000/svg" viewBox="0 0 23.35 40.25"><defs><style>.cls-1{fill:#003741;stroke:#003741;stroke-miterlimit:10;stroke-width:2px;}</style></defs><g id="Layer_1-2"><path class="cls-1" d="M22.09,35.83l-.48,2.35c-2.5,.67-5.6,1.08-8.33,1.08-7.81,0-12.28-3.36-12.28-9.2,0-4.08,2.12-7.02,6.92-9.51l1.42-.75-1.54-.43c-3.07-.91-6.15-3.91-6.15-7.86C1.65,6.41,5.56,1,12.79,1c2.21,0,3.51,.34,4.47,.67l.53,2.36c-1.63-.34-3.05-.51-4.95-.57-3.16-.09-5.34,.57-6.84,1.54-4.05,2.61-3.93,8.49-.25,11.61,1.35,1.14,3.27,2.04,5.98,2.12l.17,.03,.14-.07c3.1-1.22,5.84-2.21,8.15-2.96v1.99c-9.9,3-15.36,6.41-17.41,9.87-.51,.86-.67,1.92-.43,2.95,.55,2.52,2.3,6.54,11.78,5.97,2.72-.15,6.15-.43,7.97-.69Z"/></g></svg>