<?xml version="1.0" encoding="UTF-8"?><svg id="Layer_2" xmlns="http://www.w3.org/2000/svg" viewBox="0 0 68.44 71.53"><defs><style>.cls-1{fill:#003741;stroke:#003741;stroke-miterlimit:10;stroke-width:2px;}</style></defs><g id="Layer_1-2"><g><g id="aw9cRF"><path class="cls-1" d="M66.21,43.2H2.26l7.79-8.58c3.95-4.32,7.89-8.63,11.82-12.96,.05-.06,.11-.22,.11-.3,.02-3.16,.02-11.42,.02-16.42V1.09l1.18-.09h23.33V5.29c0,5,0,12.89-.01,15.94,0,.26,.04,.37,.22,.57,4.98,5.42,9.94,10.86,14.91,16.29l4.56,5.11Zm-58.62-2.37H60.95l-1.05-1.15c-4.96-5.43-9.93-10.87-14.91-16.29-.58-.64-.85-1.33-.85-2.18,.02-3.04,.01-10.93,.01-15.92v-1.92H24.38v1.57c0,5.01,0,13.28-.02,16.45,0,.65-.29,1.39-.73,1.87-3.94,4.33-7.88,8.65-11.83,12.97l-4.21,4.61ZM44.16,2.28h0Z"/></g><path class="cls-1" d="M56.89,65.62c-.4,0-.79-.2-1.01-.57l-9.55-15.67c-.34-.56-.16-1.29,.39-1.63,.56-.34,1.29-.16,1.63,.39l9.55,15.67c.34,.56,.16,1.29-.39,1.63-.19,.12-.4,.17-.61,.17Z"/><path class="cls-1" d="M11.64,65.62c-.21,0-.42-.06-.61-.17-.56-.34-.73-1.07-.39-1.63l9.55-15.67c.34-.56,1.07-.74,1.63-.39,.56,.34,.73,1.07,.39,1.63l-9.55,15.67c-.22,.36-.61,.57-1.01,.57Z"/><path class="cls-1" d="M34.26,70.53h0c-.65,0-1.18-.53-1.18-1.18v-20.57c0-.65,.53-1.18,1.19-1.18h0c.65,0,1.18,.53,1.18,1.18v20.57c0,.65-.53,1.18-1.19,1.18Z"/><path class="cls-1" d="M45.34,23.24c-.06,0-.12,0-.17-.01H23.33c-.67,.1-1.32-.39-1.32-1.09v-1.18l.67-.05c.28-.14,.64-.16,.93-.04h21.44c.19-.05,.41-.05,.6,0h.87v1.18c-.04,.62-.55,1.19-1.18,1.19Z"/></g></g></svg>