<?xml version="1.0" encoding="UTF-8"?><svg id="Layer_2" xmlns="http://www.w3.org/2000/svg" viewBox="0 0 76.41 73.33"><defs><style>.cls-1{fill:#003741;stroke:#003741;stroke-linejoin:round;stroke-width:2px;}</style></defs><g id="Layer_1-2"><g id="LINE"><path class="cls-1" d="M17.11,72.33l-3.54-.56-3.53-2.02-2.39-3.32-.85-2.11L1,44.33l.62-3.59,1.52-2.93,1.57-1.58L28.76,19.59l3.91-3.55,1.8-1.99,9.22-9.97,3.95-2.07,4.82-.96,1.35-.04,5.3,.72,4.59,1.88,4.39,2.95,4.34,4.13,2.98,3.95-.74,5.18-.42,6.56v1.83l.07,2.73,.45,6.48-.35,4.84-1.68,6.13-1.28,2.74-3.8,6.09-2.96,2.81-2.99,.88-.6,.03-4-.88-5.8-2.39-4.13-.49-4.86,.81-4.53,1.93-2.89,1.72-3.1,2.26-5.54,4.43-6.82,3.72-2.33,.3Zm-.34-2.37l.34,1.19-.02-1.18,.37,1.17-.07-1.18,.42,1.16-.12-1.18,.46,1.14-.16-1.17,.51,1.12-.2-1.17,.55,1.1-.26-1.15,.6,1.07-.3-1.14,.6,1.06-.36-1.13,2.29-1.03,1.54-.95,4.71-3.4,4.83-3.87,5.52-3.26,6.89-2.17,2.27-.17,4.13,.43,4.01,1.31,4.02,1.81-.07,1.2,.39-1.12,1.46,.14,.86-.07,.39,1.13-.1-1.19,.45,1.11-.16-1.18,.65,1.04-.39-1.12,.68,1.01-.46-1.09,.73,.97-.4-1.12,.66,.99-.46-1.1,.96,.78-.7-.95,.95,.77-.75-.92,.99,.71-.79-.88,1.95-2.2,1.85-2.81,3.64-8.4,.71-5.31,.02-1.31-.07-1.81-.46-7.39,.08-3.8,.37-4.86,.61-4.38-3.22-3.96-4.2-3.66-5.16-2.93-5.35-1.22-1.19-.04-5.01,.75-3.71,1.88-2.4,2.09-2.02,2.21-7.26,8.38-4.22,3.62-3.88,2.84L6.21,38.07l-.97-.75,.74,.92-1.03-.67,.8,.87-1.07-.61,.86,.81-1.11-.54,.91,.76-1.15-.46,.95,.7-1.19-.36,.99,.65-1.23-.27,1.02,.61-1.24-.22,1.04,.56-1.25-.16,1.06,.52-1.24-.15,1.08,.48-1.23-.13,1.1,.44-1.24-.08,1.12,.39-1.24-.03,1.13,.35-1.24,.02,1.14,.31-1.24,.06,1.15,.26-1.23,.11,1.16,.23-1.23,.15,1.17,.18-.12,1.59,.5,3.08,6.81,19.27-.8,.9,1.01-.63-.83,.85,.99-.67-.62,1.07,.84-.84,2.82,1.79-.1,1.22,.36-1.13-.02,1.23,.32-1.14,.02,1.23,.28-1.15,.07,1.23,.24-1.16,.11,1.23,.19-1.17,.16,1.22,.15-1.17,.2,1.22,.11-1.18,.24,1.21,.06-1.18,.29,1.2,.02-1.18Z"/></g></g></svg>