<?xml version="1.0" encoding="UTF-8"?><svg id="Layer_2" xmlns="http://www.w3.org/2000/svg" viewBox="0 0 109.05 122.77"><defs><style>.cls-1,.cls-2{fill:#c37c57;}.cls-2{stroke:#f0e1cc;stroke-miterlimit:10;}</style></defs><g id="Layer_1-2"><g><g><path class="cls-1" d="M15.68,122.77c-1.63-.59-3.16-1.33-4.17-2.82-1.49-2.19-1.77-4.51-.61-6.91,1.18-2.43,3.2-3.88,5.87-3.85,2.03,.02,3.67-.59,5.35-1.58,5.77-3.41,11.6-6.72,17.4-10.08,.37-.21,.73-.46,1.19-.75-3.28-1.9-6.45-3.74-9.62-5.58-3.45-2-6.91-3.99-10.37-5.98-5.2-3-5.26-9.33-.11-12.36,6.26-3.68,12.54-7.32,18.81-10.98,.38-.22,.74-.45,1.26-.76-.44-.28-.77-.51-1.12-.71-6.36-3.67-12.72-7.32-19.06-11.02-4.27-2.49-4.96-7.92-1.43-11.14,.52-.48,1.16-.84,1.78-1.19,6.52-3.69,13.05-7.36,19.57-11.05,.06-.04,.09-.13,.2-.27-3.52-2.03-7.04-4.06-10.55-6.09-3.21-1.85-6.42-3.72-9.65-5.54-.46-.26-1.03-.38-1.56-.43-1.19-.13-2.41-.02-3.56-.29-3.17-.73-5.44-4.03-5.07-7.2C10.62,2.68,13.45,.03,16.88,.02c5.59-.02,11.19,0,16.78,0,1.49,0,2.34,.65,2.37,1.77,.02,1.13-.85,1.83-2.31,1.83-5.39,0-10.79,0-16.18,0-2.4,0-3.82,1.46-3.58,3.62,.15,1.32,1.09,2.38,2.41,2.62,.59,.11,1.19,.13,1.79,.13,24.25,0,48.51,0,72.76,0,.56,0,1.12-.02,1.67-.12,1.48-.25,2.47-1.4,2.53-2.9,.07-1.52-.77-2.76-2.22-3.15-.61-.16-1.26-.2-1.89-.2-15.78-.01-31.57,0-47.35,0-.44,0-.89,.04-1.32-.03-1.01-.17-1.53-.81-1.51-1.83,.02-.97,.57-1.55,1.51-1.72,.31-.06,.64-.02,.96-.02,16.14,0,32.29,0,48.43,0,4.06,0,7.13,2.94,7.13,6.81,0,3.84-3.11,6.88-7.14,6.81-1.62-.03-2.98,.35-4.38,1.18-6.25,3.69-12.55,7.28-19.01,11.01,.52,.31,.94,.57,1.36,.82,6.32,3.66,12.65,7.29,18.95,10.97,3.24,1.89,4.44,5.5,3.02,8.76-.65,1.48-1.7,2.58-3.12,3.35-3.39,1.84-6.79,3.68-10.16,5.58-3.32,1.87-6.61,3.81-10.06,5.81,.55,.32,.95,.56,1.36,.8,6.25,3.61,12.51,7.2,18.75,10.83,4.16,2.42,5.09,7.41,2,10.78-.72,.78-1.63,1.42-2.54,1.97-2.81,1.68-5.65,3.29-8.49,4.92-1.33,.76-2.33,.61-2.92-.4-.59-1.01-.21-1.99,1.06-2.74,1.37-.8,2.74-1.59,4.23-2.46-2.08-1.2-4-2.33-5.95-3.42-.23-.13-.64-.16-.86-.04-5.53,3.17-11.05,6.36-16.75,9.65,2.12,1.23,4.09,2.39,6.09,3.49,.23,.12,.68-.01,.96-.17,1.43-.79,2.84-1.63,4.26-2.43,1.18-.67,2.26-.47,2.81,.48,.56,.97,.19,1.98-.98,2.69-.95,.57-1.92,1.12-2.96,1.73,.33,.22,.58,.41,.85,.57,6.62,3.84,13.24,7.69,19.9,11.48,.6,.34,1.46,.3,2.19,.28,1.69-.03,3.27,.29,4.63,1.3,2.12,1.58,3.16,3.72,2.83,6.35-.35,2.75-1.92,4.67-4.55,5.67-.29,.11-.58,.23-.87,.35H15.68Zm38.84-9.99c-9.95,0-19.9,0-29.85,0-2.36,0-4.71,0-7.07,0-1.2,0-2.32,.23-3.07,1.29-.74,1.03-.83,2.16-.3,3.28,.7,1.46,1.99,1.81,3.49,1.81,24.53,0,49.07,0,73.6-.01,.51,0,1.04-.05,1.53-.18,1.5-.4,2.35-1.67,2.25-3.24-.09-1.49-1.09-2.6-2.6-2.84-.59-.09-1.19-.1-1.79-.11-12.07,0-24.13,0-36.2,0Zm30.81-30.57c1.48-.15,2.57-.93,3.04-2.28,.56-1.61-.06-3.02-1.84-4.05-9.84-5.69-19.68-11.37-29.52-17.05-10.36-5.98-20.71-11.97-31.09-17.91-.79-.45-1.79-.77-2.68-.74-1.42,.06-2.47,1.24-2.73,2.62-.26,1.35,.43,2.63,1.96,3.51,20.29,11.73,40.59,23.45,60.89,35.15,.6,.35,1.31,.51,1.97,.75Zm-3.56,26.91l.08-.22c-.4-.24-.79-.5-1.19-.73-16.23-9.37-32.45-18.73-48.68-28.09-2.21-1.27-4.4-2.59-6.63-3.81-1.99-1.09-4.14-.18-4.75,1.95-.44,1.51,.25,2.86,2.03,3.89,15.36,8.87,30.71,17.74,46.08,26.59,.36,.21,.8,.4,1.21,.41,3.95,.03,7.9,.02,11.85,.02ZM27.51,13.66l-.04,.22c.26,.17,.52,.34,.79,.5,11.84,6.83,23.68,13.66,35.52,20.5,6.49,3.75,12.98,7.49,19.46,11.25,1.05,.61,2.11,.92,3.29,.47,1.25-.48,1.92-1.45,2.03-2.72,.13-1.52-.71-2.53-1.99-3.27-15.33-8.84-30.66-17.69-45.99-26.53-.33-.19-.73-.39-1.1-.39-3.99-.03-7.98-.02-11.96-.02Zm9.87,65.3c5.64,3.25,11.08,6.41,16.55,9.51,.34,.19,1.01,.12,1.38-.09,3.03-1.69,6.02-3.44,9.02-5.18,2.4-1.38,4.79-2.77,7.33-4.24-.23-.15-.33-.21-.43-.27-5.38-3.11-10.76-6.23-16.16-9.3-.31-.17-.91-.08-1.25,.11-2.92,1.64-5.81,3.32-8.71,4.99-2.51,1.45-5.03,2.9-7.73,4.46Zm33.86-35.45c-.26-.18-.41-.3-.57-.4-5.14-2.98-10.28-5.97-15.44-8.9-.37-.21-1.08-.17-1.46,.05-5.1,2.89-10.17,5.82-15.25,8.76-.21,.12-.39,.31-.65,.52,5.42,3.12,10.73,6.2,16.08,9.21,.36,.2,1.08,.09,1.48-.14,2.93-1.63,5.82-3.33,8.72-5,2.34-1.35,4.67-2.7,7.1-4.11Zm-20.36,23.43c-2.14-1.23-4.06-2.37-6.01-3.42-.28-.15-.84-.02-1.16,.16-3.16,1.78-6.29,3.6-9.43,5.41-2.26,1.31-4.52,2.63-6.96,4.04,2.11,1.22,4.05,2.36,6.02,3.46,.22,.12,.63,.08,.86-.05,5.5-3.15,10.98-6.31,16.68-9.6Zm-23.22-29.3c1.96,1.13,3.72,2.11,5.44,3.17,.7,.43,1.21,.44,1.94,0,4.91-2.88,9.85-5.71,14.78-8.55,.29-.17,.57-.37,.98-.64-2.06-1.19-3.97-2.32-5.91-3.39-.25-.14-.72-.11-.97,.04-5.35,3.06-10.69,6.15-16.27,9.36Zm30.56,17.64c.88,.51,1.6,.93,2.32,1.35,1.35,.77,2.71,2.14,4.05,2.13,1.4-.01,2.79-1.35,4.17-2.15,4.18-2.4,8.35-4.82,12.64-7.3-2.07-1.2-4.02-2.34-5.99-3.45-.22-.12-.64-.14-.85-.01-5.39,3.09-10.77,6.21-16.34,9.43Zm-31.03,53.61l.06,.24c2.01,0,4.05-.18,6.04,.04,4.41,.48,8.29-.59,11.88-3.18,1.72-1.24,3.67-2.17,5.69-3.35-1.97-1.14-3.77-2.13-5.52-3.22-.69-.43-1.18-.36-1.84,.03-3.71,2.19-7.44,4.33-11.17,6.48-1.71,.99-3.42,1.97-5.13,2.95ZM81.6,13.91l-.05-.25c-1.18,0-2.37,0-3.55,0-2.95,.01-6.06-.53-8.81,.21-2.75,.74-5.16,2.77-7.71,4.24-.31,.18-.62,.36-.93,.55-.74,.43-1.47,.87-2.32,1.37,2.05,1.18,3.93,2.3,5.85,3.35,.28,.16,.79,.18,1.06,.03,5.5-3.14,10.98-6.32,16.46-9.49Zm-19.99,95.17l.08-.19c-2.06-1.19-4.13-2.37-6.17-3.59-.68-.41-1.21-.49-1.93-.03-1.48,.94-3.02,1.77-4.54,2.65-.55,.32-1.1,.65-1.66,.97l.11,.2h14.11ZM47.76,13.7l-.09,.21c2.16,1.25,4.31,2.51,6.48,3.74,.18,.1,.51,.15,.67,.05,2.23-1.26,4.44-2.55,6.96-4.01h-14.02Z"/><path class="cls-1" d="M8.48,69.35v1.66c0,10.31,0,20.62,0,30.93,0,.4,.04,.81-.03,1.2-.19,.99-.86,1.58-1.84,1.55-.97-.03-1.65-.58-1.74-1.64-.04-.44-.03-.88-.03-1.32,0-10.23,0-20.46,0-30.69v-1.29l-.24-.14c-.42,.49-.83,.98-1.27,1.46-.85,.92-1.8,1.04-2.64,.36-.85-.69-.92-1.76-.1-2.75,1.5-1.82,3.01-3.63,4.55-5.41,.9-1.04,2.08-1.08,2.99-.04,1.61,1.83,3.18,3.69,4.72,5.58,.7,.86,.59,1.93-.15,2.58-.81,.7-1.83,.62-2.66-.26-.46-.49-.87-1.01-1.54-1.79Z"/><path class="cls-1" d="M100.57,69.34c-.69,.81-1.1,1.34-1.57,1.83-.83,.86-1.87,.92-2.66,.19-.73-.67-.81-1.71-.09-2.58,1.55-1.88,3.12-3.75,4.72-5.58,.86-.98,2.05-.96,2.91,.02,1.57,1.81,3.11,3.65,4.63,5.5,.77,.94,.71,1.97-.08,2.67-.85,.74-1.83,.62-2.73-.35-.42-.46-.82-.94-1.48-1.32v1.25c0,10.31,0,20.62,0,30.93,0,1.92-.59,2.83-1.82,2.82-1.23,0-1.83-.93-1.83-2.82,0-10.31,0-20.62,0-30.93v-1.63Z"/></g><path class="cls-1" d="M54.52,112.78c-9.95,0-19.9,0-29.85,0-2.36,0-4.71,0-7.07,0-1.2,0-2.32,.23-3.07,1.29-.74,1.03-.83,2.16-.3,3.28,.7,1.46,1.99,1.81,3.49,1.81,24.53,0,49.07,0,73.6-.01,.51,0,1.04-.05,1.53-.18,1.5-.4,2.35-1.67,2.25-3.24-.09-1.49-1.09-2.6-2.6-2.84-.59-.09-1.19-.1-1.79-.11-12.07,0-24.13,0-36.2,0Z"/><path class="cls-1" d="M54.52,3.56c-9.95,0-19.9,0-29.85,0-2.36,0-4.71,0-7.07,0-1.2,0-2.32,.23-3.07,1.29-.74,1.03-.83,2.16-.3,3.28,.7,1.46,1.99,1.81,3.49,1.81,24.53,0,49.07,0,73.6-.01,.51,0,1.04-.05,1.53-.18,1.5-.4,2.35-1.67,2.25-3.24-.09-1.49-1.09-2.6-2.6-2.84-.59-.09-1.19-.1-1.79-.11-12.07,0-24.13,0-36.2,0Z"/><path class="cls-2" d="M85.33,82.21c1.48-.15,2.57-.93,3.04-2.28,.56-1.61-.06-3.02-1.84-4.05-9.84-5.69-19.68-11.37-29.52-17.05-10.36-5.98-20.71-11.97-31.09-17.91-.79-.45-1.79-.77-2.68-.74-1.42,.06-2.47,1.24-2.73,2.62-.26,1.35,.43,2.63,1.96,3.51,20.29,11.73,40.59,23.45,60.89,35.15,.6,.35,1.31,.51,1.97,.75Z"/><path class="cls-2" d="M81.77,109.12l.08-.22c-.4-.24-.79-.5-1.19-.73-16.23-9.37-32.45-18.73-48.68-28.09-2.21-1.27-4.4-2.59-6.63-3.81-1.99-1.09-4.14-.18-4.75,1.95-.44,1.51,.25,2.86,2.03,3.89,15.36,8.87,30.71,17.74,46.08,26.59,.36,.21,.8,.4,1.21,.41,3.95,.03,7.9,.02,11.85,.02Z"/><path class="cls-2" d="M27.51,13.66l-.04,.22c.26,.17,.52,.34,.79,.5,11.84,6.83,23.68,13.66,35.52,20.5,6.49,3.75,12.98,7.49,19.46,11.25,1.05,.61,2.11,.92,3.29,.47,1.25-.48,1.92-1.45,2.03-2.72,.13-1.52-.71-2.53-1.99-3.27-15.33-8.84-30.66-17.69-45.99-26.53-.33-.19-.73-.39-1.1-.39-3.99-.03-7.98-.02-11.96-.02Z"/><path class="cls-2" d="M50.87,66.94c-2.14-1.23-4.06-2.37-6.01-3.42-.28-.15-.84-.02-1.16,.16-3.16,1.78-6.29,3.6-9.43,5.41-2.26,1.31-4.52,2.63-6.96,4.04,2.11,1.22,4.05,2.36,6.02,3.46,.22,.12,.63,.08,.86-.05,5.5-3.15,10.98-6.31,16.68-9.6Z"/><path class="cls-2" d="M27.65,37.64c1.96,1.13,3.72,2.11,5.44,3.17,.7,.43,1.21,.44,1.94,0,4.91-2.88,9.85-5.71,14.78-8.55,.29-.17,.57-.37,.98-.64-2.06-1.19-3.97-2.32-5.91-3.39-.25-.14-.72-.11-.97,.04-5.35,3.06-10.69,6.15-16.27,9.36Z"/><path class="cls-2" d="M58.22,55.27c.88,.51,1.6,.93,2.32,1.35,1.35,.77,2.71,2.14,4.05,2.13,1.4-.01,2.79-1.35,4.17-2.15,4.18-2.4,8.35-4.82,12.64-7.3-2.07-1.2-4.02-2.34-5.99-3.45-.22-.12-.64-.14-.85-.01-5.39,3.09-10.77,6.21-16.34,9.43Z"/><path class="cls-2" d="M27.19,108.88l.06,.24c2.01,0,4.05-.18,6.04,.04,4.41,.48,8.29-.59,11.88-3.18,1.72-1.24,3.67-2.17,5.69-3.35-1.97-1.14-3.77-2.13-5.52-3.22-.69-.43-1.18-.36-1.84,.03-3.71,2.19-7.44,4.33-11.17,6.48-1.71,.99-3.42,1.97-5.13,2.95Z"/><path class="cls-2" d="M81.6,13.91l-.05-.25c-1.18,0-2.37,0-3.55,0-2.95,.01-6.06-.53-8.81,.21-2.75,.74-5.16,2.77-7.71,4.24-.31,.18-.62,.36-.93,.55-.74,.43-1.47,.87-2.32,1.37,2.05,1.18,3.93,2.3,5.85,3.35,.28,.16,.79,.18,1.06,.03,5.5-3.14,10.98-6.32,16.46-9.49Z"/></g></g></svg>