<?xml version="1.0" encoding="UTF-8"?><svg id="Layer_2" xmlns="http://www.w3.org/2000/svg" viewBox="0 0 26.3 29.61"><defs><style>.cls-1{fill:#c77c57;}</style></defs><g id="Layer_1-2"><g><g><path class="cls-1" d="M3.78,29.61c-.39-.14-.76-.32-1.01-.68-.36-.53-.43-1.09-.15-1.67,.28-.59,.77-.94,1.42-.93,.49,0,.88-.14,1.29-.38,1.39-.82,2.8-1.62,4.2-2.43,.09-.05,.18-.11,.29-.18-.79-.46-1.56-.9-2.32-1.34-.83-.48-1.67-.96-2.5-1.44-1.25-.72-1.27-2.25-.03-2.98,1.51-.89,3.02-1.77,4.54-2.65,.09-.05,.18-.11,.3-.18-.11-.07-.19-.12-.27-.17-1.53-.89-3.07-1.77-4.6-2.66-1.03-.6-1.2-1.91-.35-2.69,.13-.12,.28-.2,.43-.29,1.57-.89,3.15-1.78,4.72-2.66,.02,0,.02-.03,.05-.06-.85-.49-1.7-.98-2.54-1.47-.78-.45-1.55-.9-2.33-1.34-.11-.06-.25-.09-.38-.1-.29-.03-.58,0-.86-.07-.76-.18-1.31-.97-1.22-1.74C2.56,.65,3.24,0,4.07,0c1.35,0,2.7,0,4.05,0,.36,0,.57,.16,.57,.43,0,.27-.2,.44-.56,.44-1.3,0-2.6,0-3.9,0-.58,0-.92,.35-.86,.87,.04,.32,.26,.57,.58,.63,.14,.03,.29,.03,.43,.03,5.85,0,11.7,0,17.55,0,.13,0,.27,0,.4-.03,.36-.06,.6-.34,.61-.7,.02-.37-.19-.67-.53-.76-.15-.04-.3-.05-.46-.05-3.81,0-7.61,0-11.42,0-.11,0-.21,.01-.32,0-.24-.04-.37-.19-.36-.44,0-.23,.14-.37,.36-.42,.07-.01,.15,0,.23,0,3.89,0,7.79,0,11.68,0,.98,0,1.72,.71,1.72,1.64,0,.93-.75,1.66-1.72,1.64-.39,0-.72,.08-1.06,.28-1.51,.89-3.03,1.76-4.58,2.65,.13,.08,.23,.14,.33,.2,1.52,.88,3.05,1.76,4.57,2.65,.78,.46,1.07,1.33,.73,2.11-.16,.36-.41,.62-.75,.81-.82,.44-1.64,.89-2.45,1.34-.8,.45-1.59,.92-2.43,1.4,.13,.08,.23,.14,.33,.19,1.51,.87,3.02,1.74,4.52,2.61,1,.58,1.23,1.79,.48,2.6-.17,.19-.39,.34-.61,.47-.68,.41-1.36,.79-2.05,1.19-.32,.18-.56,.15-.7-.1-.14-.24-.05-.48,.26-.66,.33-.19,.66-.38,1.02-.59-.5-.29-.96-.56-1.43-.83-.05-.03-.15-.04-.21,0-1.33,.76-2.67,1.53-4.04,2.33,.51,.3,.99,.58,1.47,.84,.05,.03,.16,0,.23-.04,.35-.19,.68-.39,1.03-.59,.29-.16,.55-.11,.68,.12,.13,.23,.05,.48-.24,.65-.23,.14-.46,.27-.71,.42,.08,.05,.14,.1,.2,.14,1.6,.93,3.19,1.86,4.8,2.77,.14,.08,.35,.07,.53,.07,.41,0,.79,.07,1.12,.31,.51,.38,.76,.9,.68,1.53-.08,.66-.46,1.13-1.1,1.37-.07,.03-.14,.06-.21,.08H3.78Zm9.37-2.41c-2.4,0-4.8,0-7.2,0-.57,0-1.14,0-1.71,0-.29,0-.56,.06-.74,.31-.18,.25-.2,.52-.07,.79,.17,.35,.48,.44,.84,.44,5.92,0,11.83,0,17.75,0,.12,0,.25-.01,.37-.04,.36-.1,.57-.4,.54-.78-.02-.36-.26-.63-.63-.68-.14-.02-.29-.03-.43-.03-2.91,0-5.82,0-8.73,0Zm7.43-7.37c.36-.04,.62-.22,.73-.55,.14-.39-.01-.73-.44-.98-2.37-1.37-4.75-2.74-7.12-4.11-2.5-1.44-4.99-2.89-7.5-4.32-.19-.11-.43-.19-.65-.18-.34,.01-.6,.3-.66,.63-.06,.33,.1,.63,.47,.85,4.89,2.83,9.79,5.65,14.68,8.48,.14,.08,.32,.12,.47,.18Zm-.86,6.49l.02-.05c-.1-.06-.19-.12-.29-.18-3.91-2.26-7.83-4.52-11.74-6.78-.53-.31-1.06-.62-1.6-.92-.48-.26-1-.04-1.15,.47-.11,.37,.06,.69,.49,.94,3.7,2.14,7.41,4.28,11.11,6.41,.09,.05,.19,.1,.29,.1,.95,0,1.91,0,2.86,0ZM6.63,3.29v.05c.05,.04,.11,.08,.18,.12,2.86,1.65,5.71,3.29,8.57,4.94,1.57,.9,3.13,1.81,4.69,2.71,.25,.15,.51,.22,.79,.11,.3-.12,.46-.35,.49-.66,.03-.37-.17-.61-.48-.79-3.7-2.13-7.39-4.27-11.09-6.4-.08-.05-.18-.09-.26-.09-.96,0-1.92,0-2.89,0Zm2.38,15.75c1.36,.78,2.67,1.55,3.99,2.29,.08,.05,.24,.03,.33-.02,.73-.41,1.45-.83,2.18-1.25,.58-.33,1.16-.67,1.77-1.02-.05-.04-.08-.05-.1-.07-1.3-.75-2.59-1.5-3.9-2.24-.07-.04-.22-.02-.3,.03-.7,.39-1.4,.8-2.1,1.2-.61,.35-1.21,.7-1.86,1.08Zm8.17-8.55c-.06-.04-.1-.07-.14-.1-1.24-.72-2.48-1.44-3.72-2.15-.09-.05-.26-.04-.35,.01-1.23,.7-2.45,1.4-3.68,2.11-.05,.03-.09,.08-.16,.13,1.31,.75,2.59,1.5,3.88,2.22,.09,.05,.26,.02,.36-.03,.71-.39,1.4-.8,2.1-1.21,.56-.33,1.13-.65,1.71-.99Zm-4.91,5.65c-.52-.3-.98-.57-1.45-.83-.07-.04-.2,0-.28,.04-.76,.43-1.52,.87-2.27,1.31-.55,.32-1.09,.63-1.68,.98,.51,.29,.98,.57,1.45,.83,.05,.03,.15,.02,.21-.01,1.33-.76,2.65-1.52,4.02-2.32Zm-5.6-7.07c.47,.27,.9,.51,1.31,.76,.17,.1,.29,.11,.47,0,1.18-.7,2.38-1.38,3.57-2.06,.07-.04,.14-.09,.24-.15-.5-.29-.96-.56-1.42-.82-.06-.03-.17-.03-.23,0-1.29,.74-2.58,1.48-3.92,2.26Zm7.37,4.25c.21,.12,.38,.23,.56,.33,.33,.19,.65,.52,.98,.51,.34,0,.67-.33,1.01-.52,1.01-.58,2.01-1.16,3.05-1.76-.5-.29-.97-.57-1.44-.83-.05-.03-.15-.03-.21,0-1.3,.75-2.6,1.5-3.94,2.27Zm-7.48,12.93v.06c.5,0,.99-.04,1.47,0,1.06,.12,2-.14,2.86-.77,.41-.3,.88-.52,1.37-.81-.47-.27-.91-.51-1.33-.78-.17-.1-.28-.09-.44,0-.89,.53-1.79,1.04-2.69,1.56-.41,.24-.82,.47-1.24,.71ZM19.68,3.36v-.06c-.3,0-.58,0-.87,0-.71,0-1.46-.13-2.13,.05-.66,.18-1.24,.67-1.86,1.02-.08,.04-.15,.09-.22,.13l-.56,.33c.49,.29,.95,.55,1.41,.81,.07,.04,.19,.04,.26,0,1.33-.76,2.65-1.52,3.97-2.29Zm-4.82,22.95l.02-.05c-.5-.29-1-.57-1.49-.87-.16-.1-.29-.12-.47,0-.36,.23-.73,.43-1.1,.64-.13,.08-.27,.16-.4,.23l.03,.05h3.4ZM11.52,3.3l-.02,.05c.52,.3,1.04,.6,1.56,.9,.04,.02,.12,.04,.16,.01,.54-.3,1.07-.61,1.68-.97h-3.38Z"/><path class="cls-1" d="M2.05,16.73v.4c0,2.49,0,4.97,0,7.46,0,.1,.01,.2,0,.29-.05,.24-.21,.38-.44,.37-.23,0-.4-.14-.42-.39,0-.11,0-.21,0-.32,0-2.47,0-4.93,0-7.4v-.31l-.06-.03c-.1,.12-.2,.24-.31,.35-.21,.22-.43,.25-.64,.09-.21-.17-.22-.43-.03-.66,.36-.44,.73-.87,1.1-1.3,.22-.25,.5-.26,.72,0,.39,.44,.77,.89,1.14,1.35,.17,.21,.14,.47-.04,.62-.19,.17-.44,.15-.64-.06-.11-.12-.21-.24-.37-.43Z"/><path class="cls-1" d="M24.25,16.72c-.17,.19-.27,.32-.38,.44-.2,.21-.45,.22-.64,.05-.18-.16-.19-.41-.02-.62,.37-.45,.75-.9,1.14-1.35,.21-.24,.5-.23,.7,0,.38,.44,.75,.88,1.12,1.33,.19,.23,.17,.48-.02,.64-.2,.18-.44,.15-.66-.09-.1-.11-.2-.23-.36-.32v.3c0,2.49,0,4.97,0,7.46,0,.46-.14,.68-.44,.68-.3,0-.44-.22-.44-.68,0-2.49,0-4.97,0-7.46v-.39Z"/></g><path class="cls-1" d="M13.15,27.2c-2.4,0-4.8,0-7.2,0-.57,0-1.14,0-1.71,0-.29,0-.56,.06-.74,.31-.18,.25-.2,.52-.07,.79,.17,.35,.48,.44,.84,.44,5.92,0,11.83,0,17.75,0,.12,0,.25-.01,.37-.04,.36-.1,.57-.4,.54-.78-.02-.36-.26-.63-.63-.68-.14-.02-.29-.03-.43-.03-2.91,0-5.82,0-8.73,0Z"/><path class="cls-1" d="M13.15,.86c-2.4,0-4.8,0-7.2,0-.57,0-1.14,0-1.71,0-.29,0-.56,.06-.74,.31-.18,.25-.2,.52-.07,.79,.17,.35,.48,.44,.84,.44,5.92,0,11.83,0,17.75,0,.12,0,.25-.01,.37-.04,.36-.1,.57-.4,.54-.78-.02-.36-.26-.63-.63-.68-.14-.02-.29-.03-.43-.03-2.91,0-5.82,0-8.73,0Z"/><path class="cls-1" d="M20.58,19.83c.36-.04,.62-.22,.73-.55,.14-.39-.01-.73-.44-.98-2.37-1.37-4.75-2.74-7.12-4.11-2.5-1.44-4.99-2.89-7.5-4.32-.19-.11-.43-.19-.65-.18-.34,.01-.6,.3-.66,.63-.06,.33,.1,.63,.47,.85,4.89,2.83,9.79,5.65,14.68,8.48,.14,.08,.32,.12,.47,.18Z"/><path class="cls-1" d="M19.72,26.32l.02-.05c-.1-.06-.19-.12-.29-.18-3.91-2.26-7.83-4.52-11.74-6.78-.53-.31-1.06-.62-1.6-.92-.48-.26-1-.04-1.15,.47-.11,.37,.06,.69,.49,.94,3.7,2.14,7.41,4.28,11.11,6.41,.09,.05,.19,.1,.29,.1,.95,0,1.91,0,2.86,0Z"/><path class="cls-1" d="M6.63,3.29v.05c.05,.04,.11,.08,.18,.12,2.86,1.65,5.71,3.29,8.57,4.94,1.57,.9,3.13,1.81,4.69,2.71,.25,.15,.51,.22,.79,.11,.3-.12,.46-.35,.49-.66,.03-.37-.17-.61-.48-.79-3.7-2.13-7.39-4.27-11.09-6.4-.08-.05-.18-.09-.26-.09-.96,0-1.92,0-2.89,0Z"/><path class="cls-1" d="M12.27,16.14c-.52-.3-.98-.57-1.45-.83-.07-.04-.2,0-.28,.04-.76,.43-1.52,.87-2.27,1.31-.55,.32-1.09,.63-1.68,.98,.51,.29,.98,.57,1.45,.83,.05,.03,.15,.02,.21-.01,1.33-.76,2.65-1.52,4.02-2.32Z"/><path class="cls-1" d="M6.67,9.08c.47,.27,.9,.51,1.31,.76,.17,.1,.29,.11,.47,0,1.18-.7,2.38-1.38,3.57-2.06,.07-.04,.14-.09,.24-.15-.5-.29-.96-.56-1.42-.82-.06-.03-.17-.03-.23,0-1.29,.74-2.58,1.48-3.92,2.26Z"/><path class="cls-1" d="M14.04,13.33c.21,.12,.38,.23,.56,.33,.33,.19,.65,.52,.98,.51,.34,0,.67-.33,1.01-.52,1.01-.58,2.01-1.16,3.05-1.76-.5-.29-.97-.57-1.44-.83-.05-.03-.15-.03-.21,0-1.3,.75-2.6,1.5-3.94,2.27Z"/><path class="cls-1" d="M6.56,26.26v.06c.5,0,.99-.04,1.47,0,1.06,.12,2-.14,2.86-.77,.41-.3,.88-.52,1.37-.81-.47-.27-.91-.51-1.33-.78-.17-.1-.28-.09-.44,0-.89,.53-1.79,1.04-2.69,1.56-.41,.24-.82,.47-1.24,.71Z"/><path class="cls-1" d="M19.68,3.36v-.06c-.3,0-.58,0-.87,0-.71,0-1.46-.13-2.13,.05-.66,.18-1.24,.67-1.86,1.02-.08,.04-.15,.09-.22,.13l-.56,.33c.49,.29,.95,.55,1.41,.81,.07,.04,.19,.04,.26,0,1.33-.76,2.65-1.52,3.97-2.29Z"/></g></g></svg>