<?xml version="1.0" encoding="UTF-8"?><svg id="Layer_2" xmlns="http://www.w3.org/2000/svg" viewBox="0 0 115.68 110.79"><defs><style>.cls-1{fill:#c87d58;}</style></defs><g id="Layer_1-2"><path class="cls-1" d="M2.2,75.99c-.93-2.16-1.74-4.34-2.06-6.56-1.31-9.11,6.47-15.77,13.67-19.72,0,0,38.92-24.84,46.79-36.44,0,0,27.33-32.71,55.07,4.55-.38,5.37-.62,10.75-.77,16.14-.17,6.25,.38,12.49,.13,18.73-.22,5.42-1.28,10.8-2.52,16.07-1.91,8.1-3.95,18.65-12.51,22.3-.41,.17-.82,.33-1.25,.42-1.98,.43-6.95-.65-8.62-1.98,0,0-21.42-17.1-59.94,18.23-3.8,3.48-9.21,4.25-13.38,.93-2.25-1.79-3.81-4.32-5.07-6.91-2.78-5.7-4.34-11.86-6.26-17.87-.84-2.63-2.16-5.24-3.3-7.89Z"/></g></svg>