<?xml version="1.0" encoding="UTF-8"?><svg id="Layer_2" xmlns="http://www.w3.org/2000/svg" viewBox="0 0 15.55 15.55"><defs><style>.cls-1{fill:#c87d58;}.cls-2{fill:#eacea6;}</style></defs><g id="Layer_1-2"><g><path class="cls-1" d="M15.2,8.12c-.09,0-.18-.03-.25-.1L7.77,.84,.59,8.02c-.14,.14-.36,.14-.49,0-.14-.14-.14-.36,0-.49L7.53,.1c.07-.07,.15-.1,.25-.1s.18,.04,.25,.1l7.43,7.43c.14,.14,.14,.36,0,.49-.07,.07-.16,.1-.25,.1Z"/><path class="cls-1" d="M13.08,15.55H2.47c-.19,0-.35-.16-.35-.35V7.77c0-.19,.16-.35,.35-.35s.35,.16,.35,.35v7.08H12.73V7.77c0-.19,.16-.35,.35-.35s.35,.16,.35,.35v7.43c0,.19-.16,.35-.35,.35Z"/><polygon class="cls-1" points="2.13 5.69 2.13 15.1 13.43 15.1 13.43 5.73 7.76 .49 2.13 5.69"/><path class="cls-2" d="M9.62,15.39h-3.69c-.2,0-.36-.16-.36-.36v-4.75c0-.2,.16-.36,.36-.36h3.69c.2,0,.36,.16,.36,.36v4.75c0,.2-.16,.36-.36,.36Zm-3.33-.72h2.97v-4.03h-2.97v4.03Z"/></g></g></svg>