<?xml version="1.0" encoding="UTF-8"?><svg id="Layer_2" xmlns="http://www.w3.org/2000/svg" viewBox="0 0 11.86 12.9"><defs><style>.cls-1{fill:#c87d58;}</style></defs><g id="Layer_1-2"><g><path class="cls-1" d="M11.86,7.83H0l1.45-1.59c.73-.8,1.46-1.6,2.19-2.4,0-.01,.02-.04,.02-.06,0-.59,0-2.12,0-3.05V.02l.22-.02h4.33V.8c0,.93,0,2.39,0,2.96,0,.05,0,.07,.04,.11,.92,1.01,1.84,2.01,2.77,3.02l.85,.95Z"/><path class="cls-1" d="M.99,7.39H10.89l-.19-.21c-.92-1.01-1.84-2.02-2.77-3.02-.11-.12-.16-.25-.16-.4,0-.56,0-2.03,0-2.95V.44h-3.67v.29c0,.93,0,2.46,0,3.05,0,.12-.05,.26-.13,.35-.73,.8-1.46,1.6-2.19,2.41l-.78,.86Z"/><path class="cls-1" d="M10.13,11.99c-.07,0-.15-.04-.19-.11l-1.77-2.91c-.06-.1-.03-.24,.07-.3,.1-.06,.24-.03,.3,.07l1.77,2.91c.06,.1,.03,.24-.07,.3-.04,.02-.07,.03-.11,.03Z"/><path class="cls-1" d="M1.74,11.99s-.08-.01-.11-.03c-.1-.06-.14-.2-.07-.3l1.77-2.91c.06-.1,.2-.14,.3-.07,.1,.06,.14,.2,.07,.3l-1.77,2.91c-.04,.07-.11,.11-.19,.11Z"/><path class="cls-1" d="M5.94,12.9h0c-.12,0-.22-.1-.22-.22v-3.82c0-.12,.1-.22,.22-.22h0c.12,0,.22,.1,.22,.22v3.82c0,.12-.1,.22-.22,.22Z"/><path class="cls-1" d="M7.99,4.13s-.02,0-.03,0H3.91c-.12,.02-.25-.07-.25-.2v-.22h.12c.05-.04,.12-.04,.17-.02h3.98s.08,0,.11,0h.16v.22c0,.12-.1,.22-.22,.22Z"/></g></g></svg>