<?xml version="1.0" encoding="UTF-8"?><svg id="Layer_2" xmlns="http://www.w3.org/2000/svg" viewBox="0 0 13.8 13.23"><defs><style>.cls-1{fill:#c87d58;}</style></defs><g id="Layer_1-2"><g><polygon class="cls-1" points="2.99 13.23 2.33 13.13 1.68 12.75 1.23 12.14 1.08 11.75 0 8.04 .12 7.37 .4 6.83 .69 6.54 5.15 3.45 5.88 2.79 6.21 2.42 7.92 .57 8.65 .19 9.55 0 9.8 0 10.78 .13 11.63 .48 12.45 1.03 13.25 1.8 13.8 2.53 13.67 3.49 13.59 4.71 13.59 5.05 13.6 5.55 13.68 6.76 13.62 7.65 13.31 8.79 13.07 9.3 12.37 10.43 11.82 10.95 11.26 11.11 11.15 11.12 10.41 10.95 9.33 10.51 8.57 10.42 7.67 10.57 6.83 10.93 6.29 11.25 5.71 11.67 4.69 12.49 3.42 13.18 2.99 13.23"/><polygon class="cls-1" points="2.93 12.79 2.99 13.01 2.98 12.79 3.05 13.01 3.04 12.79 3.12 13.01 3.1 12.79 3.18 13 3.15 12.78 3.25 12.99 3.21 12.77 3.31 12.98 3.26 12.76 3.37 12.96 3.32 12.75 3.43 12.95 3.36 12.74 3.79 12.55 4.07 12.37 4.95 11.74 5.84 11.02 6.86 10.42 8.14 10.01 8.56 9.98 9.33 10.06 10.07 10.3 10.82 10.64 10.81 10.86 10.88 10.65 11.15 10.68 11.31 10.67 11.38 10.88 11.36 10.66 11.45 10.86 11.42 10.64 11.54 10.84 11.46 10.63 11.59 10.82 11.51 10.62 11.64 10.8 11.57 10.59 11.69 10.77 11.61 10.57 11.78 10.71 11.65 10.53 11.83 10.68 11.69 10.51 11.88 10.64 11.73 10.47 12.09 10.07 12.44 9.55 13.11 7.99 13.24 7 13.25 6.76 13.23 6.42 13.15 5.05 13.16 4.35 13.23 3.44 13.34 2.63 12.75 1.9 11.97 1.22 11.01 .67 10.02 .45 9.8 .44 8.87 .58 8.18 .93 7.73 1.31 7.36 1.72 6.01 3.28 5.22 3.95 4.51 4.48 .97 6.88 .79 6.74 .93 6.91 .73 6.78 .88 6.94 .68 6.83 .84 6.98 .64 6.88 .8 7.02 .59 6.94 .77 7.07 .55 7 .73 7.12 .5 7.07 .69 7.18 .46 7.14 .65 7.25 .42 7.22 .62 7.31 .39 7.29 .59 7.37 .36 7.35 .56 7.43 .33 7.42 .54 7.49 .31 7.48 .52 7.55 .29 7.55 .5 7.61 .27 7.62 .49 7.67 .26 7.69 .47 7.73 .24 7.76 .46 7.79 .44 8.09 .53 8.66 1.8 12.24 1.65 12.4 1.83 12.29 1.68 12.44 1.86 12.32 1.75 12.52 1.9 12.36 2.43 12.7 2.41 12.92 2.47 12.71 2.47 12.94 2.53 12.73 2.53 12.96 2.59 12.75 2.6 12.97 2.64 12.76 2.66 12.99 2.7 12.77 2.73 13 2.76 12.78 2.79 13 2.81 12.79 2.86 13.01 2.87 12.79 2.92 13.01 2.93 12.79"/></g></g></svg>