<?xml version="1.0" encoding="UTF-8"?><svg id="Layer_2" xmlns="http://www.w3.org/2000/svg" viewBox="0 0 64.47 61.74"><defs><style>.cls-1{fill:#645136;}</style></defs><g id="Layer_1-2"><path class="cls-1" d="M1.23,42.35c-.52-1.2-.97-2.42-1.15-3.66-.73-5.08,3.6-8.79,7.62-10.99,0,0,21.69-13.85,26.08-20.31,0,0,15.23-18.23,30.69,2.54-.21,2.99-.34,5.99-.43,8.99-.1,3.48,.21,6.96,.07,10.44-.12,3.02-.71,6.02-1.41,8.95-1.07,4.51-2.2,10.4-6.97,12.43-.23,.1-.46,.18-.7,.24-1.1,.24-3.87-.36-4.8-1.1,0,0-11.94-9.53-33.4,10.16-2.12,1.94-5.13,2.37-7.46,.52-1.26-1-2.12-2.41-2.82-3.85-1.55-3.17-2.42-6.61-3.49-9.96-.47-1.47-1.21-2.92-1.84-4.4Z"/></g></svg>