<?xml version="1.0" encoding="UTF-8"?><svg id="Layer_2" xmlns="http://www.w3.org/2000/svg" viewBox="0 0 69.39 69.39"><defs><style>.cls-1{fill:#c67d58;}.cls-2{fill:#645136;}.cls-3{fill:#e7cba4;}</style></defs><g id="Layer_1-2"><g><path class="cls-2" d="M67.84,36.25c-.4,0-.79-.15-1.1-.45L34.7,3.74,2.65,35.79c-.61,.61-1.59,.61-2.19,0-.61-.61-.61-1.59,0-2.19L33.6,.45c.29-.29,.68-.45,1.1-.45s.81,.16,1.1,.45l33.15,33.15c.61,.61,.61,1.59,0,2.19-.3,.3-.7,.45-1.1,.45Z"/><path class="cls-1" d="M58.37,69.39H11.02c-.86,0-1.55-.69-1.55-1.55V34.7c0-.86,.69-1.55,1.55-1.55s1.55,.69,1.55,1.55v31.6H56.82v-31.6c0-.86,.69-1.55,1.55-1.55s1.55,.69,1.55,1.55v33.15c0,.86-.69,1.55-1.55,1.55Z"/><polygon class="cls-2" points="9.52 25.39 9.52 67.39 59.92 67.39 59.92 25.56 34.63 2.21 9.52 25.39"/><path class="cls-3" d="M42.91,68.67H26.45c-.89,0-1.6-.72-1.6-1.6v-21.18c0-.89,.72-1.6,1.6-1.6h16.46c.89,0,1.6,.72,1.6,1.6v21.18c0,.89-.72,1.6-1.6,1.6Zm-14.86-3.21h13.25v-17.98h-13.25v17.98Z"/></g></g></svg>