<?xml version="1.0" encoding="UTF-8"?><svg id="Layer_2" xmlns="http://www.w3.org/2000/svg" viewBox="0 0 125.42 124.23"><defs><style>.cls-1{fill:#c37c57;}</style></defs><g id="Layer_1-2"><g><path id="icon:1" class="cls-1" d="M69.32,64.89l47.84,26.85-3.46,6.16-45.44-31.1c-.29,.37-.61,.72-.96,1.02l26.6,46.52-6.13,3.51-22.41-48.81c-.42,.18-.85,.31-1.31,.4l1.11,54.64-7.06,.15,3.75-54.67c-.67-.07-1.31-.23-1.92-.47l-24,49.5-6.35-3.08,28.5-47.5c-.6-.47-1.12-1.04-1.53-1.69L7.3,91.83l-3.25-6.27,51.63-21.16c-.1-.34-.18-.69-.22-1.04L1.2,59.98l.44-7.05,53.86,8.21c.07-.35,.15-.69,.26-1.03L8.84,30.61l3.75-5.98L56.75,58.2c.34-.47,.74-.91,1.18-1.28L29.49,9.2l6.06-3.62,24.17,50.22c.66-.28,1.37-.47,2.12-.55V0h7.06l-4.93,55.36c.38,.07,.75,.18,1.11,.31L92.93,9.23l6.06,3.63-31.95,43.91c.29,.23,.57,.48,.83,.76l47.62-28.01,3.58,6.09-50,23.71c.26,.53,.45,1.1,.56,1.69l55.38-3.32,.42,7.05-55.7-1.62c-.06,.61-.2,1.21-.41,1.76Z"/><path id="icon:1-2" class="cls-1" d="M68.4,66.35l39.29,38.29-4.93,5.06-35.87-41.78c-.38,.28-.78,.53-1.19,.73l13.68,51.81-6.83,1.8-9.04-52.94c-.45,.06-.9,.08-1.37,.05l-13.04,53.08-6.85-1.68,17.74-51.85c-.63-.24-1.21-.56-1.74-.95L22.28,109.6l-5.34-4.61,39.8-38.53c-.46-.61-.81-1.3-1.04-2.03L1.52,76.35l-1.52-6.89,55.34-7.1c-.01-.35,0-.71,.06-1.07L3.86,44.01l2.24-6.7,49.92,21.84c.15-.32,.33-.63,.52-.93L18.83,17.61l5.17-4.8L57.98,56.64c.45-.37,.95-.68,1.47-.93L44.31,2.27l6.79-1.93,10.38,54.76c.72-.1,1.45-.1,2.19,.02L77.94,1.73l6.82,1.82-19.06,52.21c.35,.17,.68,.36,.99,.59L105.58,18.68l4.92,5.07-42.21,34.17c.22,.29,.43,.61,.61,.95l53.24-14.76,1.89,6.8-54.43,9.99c.11,.58,.15,1.17,.1,1.78l54.35,11.1-1.41,6.92-53.39-15.95c-.21,.58-.5,1.11-.85,1.6Z"/></g></g></svg>