<svg xmlns="http://www.w3.org/2000/svg" version="1.1" xmlns:xlink="http://www.w3.org/1999/xlink" width="512" height="512" x="0" y="0" viewBox="0 0 512 512" style="enable-background:new 0 0 512 512" xml:space="preserve" class=""><g><path d="M373.334 117.377c-5.891 0-10.667 4.776-10.667 10.667v64c0 5.891 4.776 10.667 10.667 10.667h64c5.891 0 10.667-4.776 10.667-10.667-.001-41.237-33.43-74.667-74.667-74.667z" style="" fill="#e39b68" data-original="#ff5722" class="" opacity="1"></path><path d="M373.334 224.044c-17.673 0-32-14.327-32-32v-52.245c-40.733 5.794-69.056 43.512-63.262 84.245 5.794 40.733 43.512 69.056 84.245 63.262 32.812-4.668 58.594-30.45 63.262-63.262h-52.245z" style="" fill="#e39b68" data-original="#ff5722" class="" opacity="1"></path><path d="M294.656 13.014a10.667 10.667 0 0 0-9.045-2.133l-277.333 64A10.668 10.668 0 0 0 0 85.377v362.667a10.667 10.667 0 0 0 9.045 10.539l277.333 42.667c5.823.895 11.269-3.099 12.164-8.921.082-.535.124-1.076.124-1.617V21.377a10.661 10.661 0 0 0-4.01-8.363z" style="" fill="#e39b68" data-original="#ff5722" class="" opacity="1"></path><path d="M501.334 458.71H288c-5.891 0-10.667-4.776-10.667-10.667s4.776-10.667 10.667-10.667h202.667V74.71H288c-5.891 0-10.667-4.776-10.667-10.667S282.109 53.377 288 53.377h213.333c5.891 0 10.667 4.776 10.667 10.667v384c0 5.891-4.775 10.666-10.666 10.666z" style="" fill="#e39b68" data-original="#ff5722" class="" opacity="1"></path><path d="M437.334 394.71H288c-5.891 0-10.667-4.776-10.667-10.667s4.776-10.667 10.667-10.667h149.333c5.891 0 10.667 4.776 10.667 10.667 0 5.892-4.775 10.667-10.666 10.667zM437.334 330.71H288c-5.891 0-10.667-4.776-10.667-10.667s4.776-10.667 10.667-10.667h149.333c5.891 0 10.667 4.776 10.667 10.667 0 5.892-4.775 10.667-10.666 10.667z" style="" fill="#e39b68" data-original="#ff5722" class="" opacity="1"></path><path d="M96 352.044c-5.891 0-10.667-4.776-10.667-10.667V170.71c0-5.891 4.776-10.667 10.667-10.667h42.667c29.455 0 53.333 23.878 53.333 53.333v21.333c0 29.455-23.878 53.333-53.333 53.333h-32v53.333c0 5.893-4.775 10.669-10.667 10.669zm10.667-85.334h32c17.673 0 32-14.327 32-32v-21.333c0-17.673-14.327-32-32-32h-32v85.333z" style="" fill="#fafafa" data-original="#fafafa" class=""></path></g></svg>