<?xml version="1.0" encoding="UTF-8"?><svg id="Layer_2" xmlns="http://www.w3.org/2000/svg" viewBox="0 0 29.94 29.66"><defs><style>.cls-1{fill:#c77c57;}</style></defs><g id="Layer_1-2"><path id="icon:1" class="cls-1" d="M16.55,15.49l11.42,6.41-.82,1.47-10.85-7.42c-.07,.09-.15,.17-.23,.24l6.35,11.11-1.46,.84-5.35-11.65c-.1,.04-.2,.07-.31,.1l.27,13.04-1.68,.03,.89-13.05c-.16-.02-.31-.05-.46-.11l-5.73,11.82-1.52-.73,6.8-11.34c-.14-.11-.27-.25-.37-.4L1.74,21.92l-.78-1.5,12.32-5.05c-.02-.08-.04-.16-.05-.25L.29,14.32l.1-1.68,12.86,1.96c.02-.08,.04-.17,.06-.25L2.11,7.31l.9-1.43L13.55,13.89c.08-.11,.18-.22,.28-.31L7.04,2.2l1.45-.86,5.77,11.99c.16-.07,.33-.11,.51-.13V0h1.68l-1.18,13.22c.09,.02,.18,.04,.27,.07L22.18,2.2l1.45,.87-7.63,10.48c.07,.05,.14,.12,.2,.18l11.37-6.69,.85,1.45-11.94,5.66c.06,.13,.11,.26,.13,.4l13.22-.79,.1,1.68-13.3-.39c-.01,.15-.05,.29-.1,.42Z"/><path id="icon:1-2" class="cls-1" d="M16.33,15.84l9.38,9.14-1.18,1.21-8.56-9.97c-.09,.07-.19,.13-.28,.17l3.27,12.37-1.63,.43-2.16-12.64c-.11,.01-.22,.02-.33,.01l-3.11,12.67-1.64-.4,4.24-12.38c-.15-.06-.29-.13-.41-.23L5.32,26.16l-1.28-1.1L13.54,15.87c-.11-.15-.19-.31-.25-.49L.36,18.23l-.36-1.65,13.21-1.7c0-.08,0-.17,.01-.25L.92,10.51l.54-1.6,11.92,5.21c.04-.08,.08-.15,.12-.22L4.49,4.2l1.23-1.15L13.84,13.52c.11-.09,.23-.16,.35-.22L10.58,.54l1.62-.46,2.48,13.07c.17-.02,.35-.02,.52,0L18.61,.41l1.63,.44-4.55,12.46c.08,.04,.16,.09,.24,.14L25.2,4.46l1.17,1.21-10.08,8.16c.05,.07,.1,.15,.15,.23l12.71-3.52,.45,1.62-12.99,2.39c.03,.14,.04,.28,.02,.43l12.98,2.65-.34,1.65-12.74-3.81c-.05,.14-.12,.27-.2,.38Z"/></g></svg>